<?xml version="1.0" encoding="utf-8"?>
<svg version="1.1" xmlns="http://www.w3.org/2000/svg" x="0px" y="0px" viewBox="0 0 256 256" xml:space="preserve">
<g>
    <g>
        <g>
            <path fill="#ffffff"
                  d="M69.9,62.5c-2.5,1.4-58.4,57.5-59.2,59.6c-0.9,2.3-0.9,9.5,0,11.8c0.9,2.1,56.7,58.3,59.3,59.6c4,2.1,6.4,1,13.6-6.1c7.3-7.3,8.7-10,6.8-13.9c-0.4-0.8-10.6-11.4-22.7-23.5l-22-22l22-22c15.2-15.1,22.2-22.5,22.7-23.7c1.7-4,0.6-6-6.3-13.1C76.7,61.7,73.9,60.4,69.9,62.5z"/>
            <path fill="#ffffff"
                  d="M132.4,62.3c-3.4,1.5-2.6-1.3-18.9,64c-12.4,49.4-15.1,60.8-14.8,62.2c0.4,2.1,2.3,4.4,4.3,5.3c2.1,0.9,18.4,0.9,20.6,0c3.5-1.4,2.6,1.5,19-64c12.4-49.4,15.1-60.8,14.8-62.2c-0.4-2.1-2.3-4.4-4.3-5.3C151,61.4,134.4,61.4,132.4,62.3z"/>
            <path fill="#ffffff"
                  d="M178.7,62.9c-2.9,1.9-12.3,11.6-13.1,13.6c-0.9,2.2-0.9,4.2,0,6c0.4,0.8,10.6,11.4,22.7,23.5l22,22l-22,22c-12.1,12.1-22.3,22.7-22.7,23.5c-1.9,3.8-0.6,6.6,6.8,13.9c7.2,7.1,9.3,8.1,13.4,6.1c2.7-1.3,58.5-57.2,59.5-59.6c0.9-2.3,0.9-9.5,0-11.8c-0.9-2.1-56.7-58.3-59.3-59.6C183.5,61.2,181.1,61.3,178.7,62.9z"/>
        </g>
    </g>
</g>
</svg>